<svg id="Layer_1" data-name="Layer 1" xmlns="http://www.w3.org/2000/svg" viewBox="0 0 129 129"><defs><style>.cls-1{fill:#222d5e;}.cls-2{fill:#fad02c;}.cls-3{fill:#fff;}</style></defs><title>Icono vilean</title><rect class="cls-1" width="129" height="129" rx="61.68"/><path class="cls-2" d="M74.9,53.94l-7,2.23a12.42,12.42,0,0,1-4.75.56L55.73,76.41,43.29,44H31.08L49.94,93H61.51L74.34,59Z"/><path class="cls-2" d="M94.94,44.87l-6.65,2.94a1.64,1.64,0,0,0-1,1.06c-.88,2.53-3.06,9.59-4,12.12V93H94.8Z"/><path class="cls-3" d="M64.18,39.58c2.06,1.34,4.13,2.65,6.19,4a.78.78,0,0,0,.89,0c1.49-.73,3-1.45,4.5-2.17l1.82-.88-.32-.12c-3-1.06-6-2.13-9-3.14a2.38,2.38,0,0,0-1.46.11,24.1,24.1,0,0,0-2.52,1.19,3.84,3.84,0,0,0-.61.45A4.52,4.52,0,0,0,64.18,39.58Z"/><path class="cls-3" d="M77.21,50.59c-1.29.57-2.46,1.16-3.69,1.63a38.44,38.44,0,0,1-9.86,2.47,3.64,3.64,0,0,1-3.27-1c-2-2.1-4.08-4.17-6.2-6.32.72-.36,1.27-.65,1.84-.89a1,1,0,0,1,.57.08c2.41.77,4.82,1.56,7.23,2.31a1.24,1.24,0,0,0,.85-.06q12.42-5.94,24.81-11.9a8.88,8.88,0,0,1,6.69-.38C98,37.07,98.4,38.37,97.3,40a6.66,6.66,0,0,1-2.69,2.22c-2.54,1.23-5.07,2.45-7.62,3.64a1.68,1.68,0,0,0-1,1.06c-2,5.66-4,11.31-5.93,17a2.39,2.39,0,0,1-1.38,1.58c-.86.36-1.67.81-2.52,1.2-.53.24-.66.15-.61-.44q.41-4,.83-8Z"/></svg>