<svg id="Layer_1" data-name="Layer 1" xmlns="http://www.w3.org/2000/svg" viewBox="0 0 183.66 191.61"><defs><style>.cls-1{fill:#f9cf2f;}.cls-2{fill:#212e5e;}</style></defs><title>Icono garantia</title><circle class="cls-1" cx="91.83" cy="91.83" r="91.83"/><path class="cls-2" d="M125.15,44.79a26.49,26.49,0,0,0,1,5.32,8.1,8.1,0,0,0,7.67,5.22c1.52.08,3.06,0,4.59,0a6.68,6.68,0,0,1,5.88,9.73c-.77,1.51-1.64,3-2.44,4.45A8.53,8.53,0,0,0,145,80.83c1.36.81,2.74,1.61,4.08,2.46a6.65,6.65,0,0,1,.21,11.16,38,38,0,0,1-3.93,2.34,8.69,8.69,0,0,0-3.23,12.1c.78,1.15,1.38,2.42,2.05,3.64a6.67,6.67,0,0,1-5.86,9.92,42,42,0,0,0-6.16.29,8.37,8.37,0,0,0-6.72,7.75c-.09,1.62-.09,3.25-.1,4.88a6.66,6.66,0,0,1-9.85,6c-1.41-.73-2.79-1.53-4.17-2.32a8.57,8.57,0,0,0-11.29,2.88c-.84,1.39-1.64,2.8-2.5,4.18a6.65,6.65,0,0,1-11.32.21c-.9-1.35-1.68-2.78-2.52-4.17a8.49,8.49,0,0,0-11.1-3.25c-1.5.76-2.95,1.64-4.44,2.45a6.7,6.7,0,0,1-9.9-5.83,38.82,38.82,0,0,0-.42-6.74,8.13,8.13,0,0,0-7.64-6.16l-5.07-.15A6.61,6.61,0,0,1,39.29,113c.7-1.5,1.58-2.92,2.39-4.36a8.55,8.55,0,0,0-3-11.55c-1.33-.81-2.7-1.56-4-2.41a6.62,6.62,0,0,1,0-11.41c1.29-.82,2.61-1.58,3.92-2.36a8.51,8.51,0,0,0,3.18-11.35c-.74-1.38-1.51-2.73-2.26-4.09a6.7,6.7,0,0,1,5.89-10.05c1.73,0,3.46.05,5.18-.08a8.49,8.49,0,0,0,7.64-8.4c0-1.46.06-2.92.08-4.38a6.65,6.65,0,0,1,9.94-5.92c1.29.68,2.58,1.36,3.81,2.14a8.67,8.67,0,0,0,11.82-3.19,33.93,33.93,0,0,1,2.64-4.32,6.6,6.6,0,0,1,11,.42c.84,1.31,1.6,2.67,2.41,4a8.6,8.6,0,0,0,11.59,3.14A32.67,32.67,0,0,1,117.06,36a6.55,6.55,0,0,1,8.32,6.16c0,.86,0,1.73,0,2.59ZM88.39,95.84,78.47,85.9a12,12,0,0,0-1.17-1.08,5.61,5.61,0,0,0-4.57-1.19,5.87,5.87,0,0,0-4.87,4.28A5.74,5.74,0,0,0,69.53,94q7.11,7.14,14.24,14.25c3,3,6.4,3,9.42,0,2.58-2.59,5.16-5.19,7.74-7.77q9.7-9.69,19.39-19.39a5.57,5.57,0,0,0,1.57-5.4c-1.13-4.9-6.63-6.44-10.33-2.93-1.08,1-2.12,2.11-3.18,3.17Q98.71,85.59,89,95.27C88.85,95.43,88.67,95.58,88.39,95.84Z"/><path class="cls-2" d="M34.67,175.35,48,143.44a18.84,18.84,0,0,0,11.9,10.07,18.58,18.58,0,0,0,15.23-2.24,18.9,18.9,0,0,0,11.49,9.42L73.72,191.61c-1.31-1.52-2.54-2.94-3.75-4.37-3.79-4.44-7.57-8.9-11.38-13.32a1.7,1.7,0,0,0-1.24-.55c-3.24.23-6.48.55-9.71.83l-11.11.94C36,175.19,35.42,175.27,34.67,175.35Z"/><path class="cls-2" d="M97,160.68a19,19,0,0,0,11.5-9.41,18.62,18.62,0,0,0,15.32,2.22c5.36-1.54,9.16-5,11.8-10L149,175.31l-5.41-.44-10.91-1q-3-.25-5.95-.55a1.77,1.77,0,0,0-1.79.67c-4.83,5.74-9.71,11.44-14.58,17.15l-.37.4Z"/></svg>