<svg id="Layer_1" data-name="Layer 1" xmlns="http://www.w3.org/2000/svg" viewBox="0 0 183.66 128.66"><defs><style>.cls-1{fill:#fff;}</style></defs><title>avion</title><path class="cls-1" d="M43.23,16c8.42,5.48,16.91,10.86,25.33,16.36a3.21,3.21,0,0,0,3.64.12c6.11-3,12.27-5.93,18.4-8.89l7.49-3.62-1.32-.49C84.47,15.12,72.2,10.71,59.84,6.59a9.66,9.66,0,0,0-6,.44,107.31,107.31,0,0,0-10.35,4.9A17.37,17.37,0,0,0,41,13.77,14.63,14.63,0,0,0,43.23,16Z"/><path class="cls-1" d="M96.56,61c-5.27,2.34-10.09,4.75-15.1,6.67A156.11,156.11,0,0,1,41.09,77.82c-5.09.52-9.61-.26-13.4-4.21C19.44,65,11,56.55,2.33,47.71c2.94-1.44,5.18-2.64,7.52-3.61a4,4,0,0,1,2.35.32c9.87,3.15,19.71,6.37,29.6,9.45a5.2,5.2,0,0,0,3.48-.23Q96.09,29.33,146.83,4.9C155.76.6,165,.51,174.22,3.36c7.57,2.33,9.09,7.66,4.56,14.22a27.45,27.45,0,0,1-11,9.09c-10.38,5-20.76,10-31.2,14.88a6.87,6.87,0,0,0-3.91,4.35c-8.06,23.16-16.23,46.29-24.29,69.45-1,3-2.56,5.23-5.62,6.48-3.52,1.45-6.87,3.31-10.34,4.9-2.16,1-2.72.6-2.48-1.78,1.09-10.89,2.24-21.78,3.36-32.67C94.37,82,95.45,71.68,96.56,61Z"/></svg>