<svg id="Layer_1" data-name="Layer 1" xmlns="http://www.w3.org/2000/svg" viewBox="0 0 62.21 62.22"><defs><style>.cls-1{fill:#fff;}</style></defs><title>Icono</title><path class="cls-1" d="M41.74,1.86A31.15,31.15,0,0,0,4.39,47.17,31.48,31.48,0,0,0,37,61.68c14.54-2.76,25.05-15.9,25.17-30.56A31.52,31.52,0,0,0,41.74,1.86Zm-1.2,55.08a27.81,27.81,0,0,1-30.67-8.3A27.52,27.52,0,0,1,36.56,4.16a27.8,27.8,0,0,1,22,27A27.76,27.76,0,0,1,40.54,56.94Z"/><path class="cls-1" d="M44.71,29.56,22.81,18.45A1.71,1.71,0,0,0,20.33,20V44.1a1.7,1.7,0,0,0,2.58,1.46l21.9-13A1.71,1.71,0,0,0,44.71,29.56Z"/></svg>