<svg id="Layer_1" data-name="Layer 1" xmlns="http://www.w3.org/2000/svg" viewBox="0 0 58.51 49.15"><defs><style>.cls-1{fill:#fad030;}</style></defs><title>Iconos</title><path class="cls-1" d="M58.5,20.21V4.63C58.5,1.74,57,0,54.38,0H45.3c-2.62,0-4.12,1.7-4.12,4.65V48.88l1.79.21a3.13,3.13,0,0,0,.5,0H47c3,0,6.07,0,9.11,0h0a2.3,2.3,0,0,0,1.73-.71,2.79,2.79,0,0,0,.68-2Q58.5,33.32,58.5,20.21ZM48.86,45.13H44.93V4.66A2.47,2.47,0,0,1,45,4l.32,0h9.06a1,1,0,0,1,.31,0,2,2,0,0,1,.06.59V20.21q0,12.46,0,24.93Z"/><path class="cls-1" d="M13.14,12.34H4.19C1.53,12.35,0,14.06,0,17v29.3c0,.2,0,.41,0,.62L.11,49.1H17.34V17C17.34,14.05,15.81,12.35,13.14,12.34ZM3.76,45.1V17a2.37,2.37,0,0,1,.06-.65,1.39,1.39,0,0,1,.37,0h9a1.43,1.43,0,0,1,.38,0,2.29,2.29,0,0,1,.06.63V45.1Z"/><path class="cls-1" d="M33.87,16.37H31c-2,0-4.06,0-6.07,0a3.92,3.92,0,0,0-3.08,1.17A4.91,4.91,0,0,0,20.6,21.1q0,9,0,18.09v7.14c0,.21,0,.43,0,.65l.11,2.11h17L37.89,47c0-.18,0-.35,0-.52V20.82C37.91,18.08,36.36,16.37,33.87,16.37Zm.28,28.72H24.37v-5.9q0-9.06,0-18.11a2.12,2.12,0,0,1,.09-.69.77.77,0,0,1,.38-.05c2.07.06,4.15.05,6.17,0h2.48a5.75,5.75,0,0,1,.65,0,3.14,3.14,0,0,1,0,.44q0,11.22,0,22.46Z"/></svg>