<svg id="Layer_1" data-name="Layer 1" xmlns="http://www.w3.org/2000/svg" viewBox="0 0 63.61 48.74"><defs><style>.cls-1{fill:#fad030;}</style></defs><title>Iconos</title><path class="cls-1" d="M31.75,48.74H6.19a6,6,0,0,1-4.46-1.82A5.75,5.75,0,0,1,0,42.79Q0,28.2,0,13.61A6,6,0,0,1,6,7.67c1.79,0,3.58,0,5.37,0A.49.49,0,0,0,12,7.25a12.56,12.56,0,0,1,1.4-3.7A7.42,7.42,0,0,1,19.74,0q12-.06,24.11,0a7.68,7.68,0,0,1,7.29,5.53c.15.51.32,1,.43,1.54a.64.64,0,0,0,.77.59c1.7,0,3.4,0,5.11,0a6,6,0,0,1,6.14,6q0,14.53,0,29.07a6,6,0,0,1-6.18,6Zm0-4H57.23a2.1,2.1,0,0,0,2.36-2.35V14a2.07,2.07,0,0,0-2.31-2.29H50.51A2,2,0,0,1,48.25,10c-.31-1-.61-2.08-.91-3.12A3.73,3.73,0,0,0,43.58,4H20a3.76,3.76,0,0,0-3.79,2.9L15.34,10a2,2,0,0,1-2.19,1.64h-7A2,2,0,0,0,4,13.81Q4,28.18,4,42.57a2.43,2.43,0,0,0,.07.66,2.09,2.09,0,0,0,2.26,1.5Z"/><path class="cls-1" d="M46,26.43A14.23,14.23,0,1,1,31.84,12.19,14.21,14.21,0,0,1,46,26.43Zm-4-.07A10.21,10.21,0,1,0,31.77,36.61,10.24,10.24,0,0,0,42,26.36Z"/></svg>