<svg id="Layer_1" data-name="Layer 1" xmlns="http://www.w3.org/2000/svg" viewBox="0 0 52.27 47.58"><defs><style>.cls-1{fill:#fad030;}</style></defs><title>Iconos</title><path class="cls-1" d="M51.85,11a13.53,13.53,0,0,0-4.53-8A12.79,12.79,0,0,0,41.26.28a15,15,0,0,0-8,.59,14.27,14.27,0,0,0-6.73,5.32c-.11.15-.22.3-.34.48-.35-.47-.67-.92-1-1.35A13.83,13.83,0,0,0,12.37.1a13.35,13.35,0,0,0-7,2.56A13.28,13.28,0,0,0,.52,10.55,19.68,19.68,0,0,0,2.9,25.21a56.45,56.45,0,0,0,7.47,10.11,96.84,96.84,0,0,0,11.3,10.6A7.13,7.13,0,0,0,25,47.49a.76.76,0,0,1,.18.09h1.84a11.11,11.11,0,0,0,2.82-1.18c2.43-1.92,4.76-3.95,7.05-6,3.44-3.44,7.1-7.62,7.1-7.62,1.16-1.49,2.33-3,3.41-4.52a28.49,28.49,0,0,0,4.16-8.3c.28-1,.45-2.05.67-3.07V13.69C52.13,12.81,52,11.92,51.85,11ZM46.2,22.36a45.37,45.37,0,0,1-5.35,7.81,97.48,97.48,0,0,1-7,7.46q-3,2.65-6.06,5.24a2.58,2.58,0,0,1-3.42,0A90.26,90.26,0,0,1,13.22,32.36a50.3,50.3,0,0,1-7-9.72A15.34,15.34,0,0,1,4.49,11.57a9.14,9.14,0,0,1,3.7-5.89,9.84,9.84,0,0,1,5-1.54A10,10,0,0,1,20,6a11.63,11.63,0,0,1,4.07,5.79c0,.08.05.16.08.24a2,2,0,0,0,1.91,1.49,2,2,0,0,0,2-1.43,12.63,12.63,0,0,1,4.36-6.14,10.34,10.34,0,0,1,9-1.41,8,8,0,0,1,5.66,4.85A15.19,15.19,0,0,1,48.17,15,14.73,14.73,0,0,1,46.2,22.36Z"/></svg>